<?xml version="1.0" encoding="utf-8"?>
<!-- Generator: Adobe Illustrator 28.0.0, SVG Export Plug-In . SVG Version: 6.00 Build 0)  -->
<svg version="1.1" id="Layer_2_00000045620571306959573050000012821788878199353014_"
	 xmlns="http://www.w3.org/2000/svg" xmlns:xlink="http://www.w3.org/1999/xlink" x="0px" y="0px" viewBox="0 0 4236.4 415.2"
	 style="enable-background:new 0 0 4236.4 415.2;" xml:space="preserve">
<style type="text/css">
	.st0{fill:#53AE4D;}
</style>
<g id="Layer_1-2">
	<path class="st0" d="M3217.2,123.1c-64.1-4.8-124.2,1-184.1,8.7c-231.8,30-458.7,84.1-685.5,138.6c-120.7,29-241.3,59-364.2,78.2
		c-18.8,2.9-38.2,4.6-57.2,3.8c-34.1-1.5-58.7-20.9-64.9-49.3c-7-31.9,7-55.6,32.9-72c34.2-21.7,72.7-34.9,109.5-51.5
		c14.5-6.6,29.1-13.1,42.7-24C1360,262.7,675,377.5,0,415.2c578.7-110,1175.1-230.6,1773.7-339.5c112.3-20.4,224.6-40.6,337.9-54.2
		c31.1-3.7,62.4-6,93.6-0.9c72.1,11.9,93.3,65.2,49.1,122.8c-5.4,7-13.5,12.3-15.3,23.8c12.1,5.1,23.3-0.9,34.1-3.6
		c209-50.7,418-101.7,630.5-136.2c97.8-15.9,195.9-28.8,295.2-27.4c40.5,0.6,80.9,3.2,119.2,17.9c75.5,28.8,91.8,100.3,36.6,159.2
		c-20.9,22.3-46.5,38.7-71.9,55.2c-9.9,6.5-22.1,10.2-29.5,24.1c16.5,9.8,34.8,8.2,52.1,9.5c169.5,12,339.1,7.6,508.7,4.3
		c111.2-2.1,221.8-10.6,332-25.6c13-1.8,26.2-2.4,39.3-2.2c21.9,0.3,39.5,9,47.6,30.7c7.8,21.1,1.8,40-13.1,55.9
		c-21.1,22.6-49.5,30.6-78.6,35.5c-66.8,11.3-134.2,18.2-201.8,20.7c-225,8.5-450.1,16.7-675.1-1.9c-40.3-3.3-80.5-8.3-118.7-22.6
		c-79.6-29.8-93.5-104-30.3-161.1c21.9-19.7,47.4-34.2,72.1-49.9C3197.4,143.4,3210.1,140.3,3217.2,123.1L3217.2,123.1z"/>
</g>
</svg>
