<?xml version="1.0" standalone="no"?>
<!DOCTYPE svg PUBLIC "-//W3C//DTD SVG 20010904//EN"
 "http://www.w3.org/TR/2001/REC-SVG-20010904/DTD/svg10.dtd">
<svg version="1.0" xmlns="http://www.w3.org/2000/svg"
 width="700.000000pt" height="700.000000pt" viewBox="0 0 700.000000 700.000000"
 preserveAspectRatio="xMidYMid meet">
<metadata>
Created by potrace 1.14, written by Peter Selinger 2001-2017
</metadata>
<g transform="translate(0.000000,700.000000) scale(0.100000,-0.100000)"
fill="#000000" stroke="none">
<path d="M2772 5908 c11 -40 41 -145 68 -233 115 -381 153 -560 186 -875 11
-99 11 -542 1 -650 -8 -83 -10 -102 -22 -185 -3 -22 -8 -60 -11 -85 -3 -25
-10 -49 -16 -55 -6 -7 -9 -7 -7 0 3 9 -2 44 -16 126 -13 79 -36 208 -40 234
-49 271 -193 622 -353 863 -30 45 -56 82 -58 82 -1 0 17 -47 41 -105 112 -267
188 -556 212 -800 16 -171 6 -418 -21 -540 -14 -60 -15 -58 -21 35 -3 57 -15
150 -21 172 -3 9 -6 25 -8 35 -35 179 -111 411 -183 558 -43 89 -142 249 -150
242 -2 -2 11 -37 27 -78 50 -120 106 -297 133 -419 25 -113 29 -139 44 -263
12 -101 8 -386 -6 -462 -19 -98 -63 -214 -106 -279 -46 -69 -159 -176 -231
-217 -30 -17 -54 -32 -54 -34 0 -1 28 6 63 17 80 26 186 57 212 63 11 2 63 15
116 29 52 14 106 27 120 29 27 5 403 99 489 122 109 30 297 98 378 138 150 74
269 192 262 260 -2 18 -4 113 -4 213 -1 210 3 213 -86 -54 -50 -148 -55 -159
-60 -125 -6 47 -3 253 4 308 4 22 9 63 12 90 7 64 51 266 71 325 8 25 17 54
19 65 3 16 47 133 89 240 29 73 -99 -125 -152 -235 -85 -174 -174 -482 -198
-680 -3 -25 -8 -52 -11 -61 -2 -9 -5 -33 -6 -52 -2 -69 -19 -30 -36 88 -9 66
-9 426 1 490 49 323 96 507 178 692 11 23 19 45 19 48 0 3 8 25 19 48 10 23
22 53 26 67 l7 25 -19 -25 c-82 -102 -171 -273 -250 -474 -30 -77 -64 -154
-76 -170 l-22 -31 -7 49 c-4 26 -9 67 -12 89 -5 35 -44 226 -61 302 -25 110
-114 400 -144 470 -5 11 -24 58 -42 105 -51 130 -120 263 -209 399 -44 69 -80
128 -80 133 0 4 -4 8 -9 8 -4 0 1 -33 11 -72z"/>
<path d="M3893 4477 c-53 -106 -109 -273 -108 -323 0 -13 21 -39 54 -67 158
-135 234 -330 185 -474 -22 -65 -65 -126 -145 -203 -186 -180 -401 -290 -829
-420 -58 -18 -123 -38 -145 -45 -22 -8 -121 -40 -220 -71 -468 -148 -709 -274
-906 -474 -156 -158 -252 -349 -276 -553 -17 -139 -9 -363 18 -512 l13 -70 13
60 c73 340 137 484 283 634 123 127 274 229 475 322 131 59 135 61 305 129
251 100 398 145 695 215 193 46 337 79 385 90 230 50 674 201 855 290 124 61
335 188 355 214 3 3 21 18 40 33 226 171 318 385 248 579 -83 227 -366 443
-772 589 -101 36 -441 120 -487 120 -3 0 -19 -28 -36 -63z"/>
<path d="M2155 4406 c-157 -63 -256 -112 -352 -174 -66 -43 -93 -68 -60 -57 6
2 59 16 117 29 58 14 157 39 220 56 63 17 128 33 144 36 16 3 32 6 35 8 3 2
24 7 45 10 22 4 42 8 44 11 8 8 -40 135 -51 134 -7 0 -70 -24 -142 -53z"/>
</g>
</svg>
