<?xml version="1.0" encoding="utf-8"?>
<!-- Generator: Adobe Illustrator 28.0.0, SVG Export Plug-In . SVG Version: 6.00 Build 0)  -->
<svg version="1.1" id="Layer_2_00000025434919161883559430000006734623757062830231_"
	 xmlns="http://www.w3.org/2000/svg" xmlns:xlink="http://www.w3.org/1999/xlink" x="0px" y="0px" viewBox="0 0 4145.9 381"
	 style="enable-background:new 0 0 4145.9 381;" xml:space="preserve">
<style type="text/css">
	.st0{fill:#53AE4D;}
</style>
<g id="Layer_1-2">
	<path class="st0" d="M4.7,328.9C582,211,1169.6,184.5,1753.9,129.4C2107,96.1,2459.7,59,2813,29.2c297.2-25.1,595.3-37.2,893.7-22
		c83.6,4.3,166.8,13,247.3,38.3c42.5,13.3,83.6,29.5,120.1,55.7c91.7,65.8,96.6,198.4-30.6,272.8c-11.3,6.6-26.1,11.4-35.7-1.7
		c-10.4-14.2,2-24.1,11.5-33.1c18.3-17.4,35.8-35.5,48.3-57.7c20.1-35.8,15.7-59-15.9-84.5c-26.6-21.5-58.1-32.1-91-38.3
		c-109.1-20.5-219.2-32.8-330.2-35c-379.4-7.5-757.1,17.8-1134.2,56.9c-576.2,59.7-1153,113-1731.1,151.1
		c-220.4,14.5-441,11.6-661.4-2.4C70.6,327.1,37.4,328.9,4.7,328.9z"/>
</g>
</svg>
