<svg version="1.0" xmlns="http://www.w3.org/2000/svg" width="933.333" height="933.333" viewBox="0 0 700 700"><path d="M277.2 109.2c1.1 4 4.1 14.5 6.8 23.3 11.5 38.1 15.3 56 18.6 87.5 1.1 9.9 1.1 54.2.1 65-.8 8.3-1 10.2-2.2 18.5-.3 2.2-.8 6-1.1 8.5-.3 2.5-1 4.9-1.6 5.5-.6.7-.9.7-.7 0 .3-.9-.2-4.4-1.6-12.6-1.3-7.9-3.6-20.8-4-23.4-4.9-27.1-19.3-62.2-35.3-86.3-3-4.5-5.6-8.2-5.8-8.2-.1 0 1.7 4.7 4.1 10.5 11.2 26.7 18.8 55.6 21.2 80 1.6 17.1.6 41.8-2.1 54-1.4 6-1.5 5.8-2.1-3.5-.3-5.7-1.5-15-2.1-17.2-.3-.9-.6-2.5-.8-3.5-3.5-17.9-11.1-41.1-18.3-55.8-4.3-8.9-14.2-24.9-15-24.2-.2.2 1.1 3.7 2.7 7.8 5 12 10.6 29.7 13.3 41.9 2.5 11.3 2.9 13.9 4.4 26.3 1.2 10.1.8 38.6-.6 46.2-1.9 9.8-6.3 21.4-10.6 27.9-4.6 6.9-15.9 17.6-23.1 21.7-3 1.7-5.4 3.2-5.4 3.4 0 .1 2.8-.6 6.3-1.7 8-2.6 18.6-5.7 21.2-6.3 1.1-.2 6.3-1.5 11.6-2.9 5.2-1.4 10.6-2.7 12-2.9 2.7-.5 40.3-9.9 48.9-12.2 10.9-3 29.7-9.8 37.8-13.8 15-7.4 26.9-19.2 26.2-26-.2-1.8-.4-11.3-.4-21.3-.1-21 .3-21.3-8.6 5.4-5 14.8-5.5 15.9-6 12.5-.6-4.7-.3-25.3.4-30.8.4-2.2.9-6.3 1.2-9 .7-6.4 5.1-26.6 7.1-32.5.8-2.5 1.7-5.4 1.9-6.5.3-1.6 4.7-13.3 8.9-24 2.9-7.3-9.9 12.5-15.2 23.5-8.5 17.4-17.4 48.2-19.8 68-.3 2.5-.8 5.2-1.1 6.1-.2.9-.5 3.3-.6 5.2-.2 6.9-1.9 3-3.6-8.8-.9-6.6-.9-42.6.1-49 4.9-32.3 9.6-50.7 17.8-69.2 1.1-2.3 1.9-4.5 1.9-4.8 0-.3.8-2.5 1.9-4.8 1-2.3 2.2-5.3 2.6-6.7l.7-2.5-1.9 2.5c-8.2 10.2-17.1 27.3-25 47.4-3 7.7-6.4 15.4-7.6 17l-2.2 3.1-.7-4.9c-.4-2.6-.9-6.7-1.2-8.9-.5-3.5-4.4-22.6-6.1-30.2-2.5-11-11.4-40-14.4-47-.5-1.1-2.4-5.8-4.2-10.5-5.1-13-12-26.3-20.9-39.9-4.4-6.9-8-12.8-8-13.3 0-.4-.4-.8-.9-.8-.4 0 .1 3.3 1.1 7.2z"/><path d="M389.3 252.3c-5.3 10.6-10.9 27.3-10.8 32.3 0 1.3 2.1 3.9 5.4 6.7 15.8 13.5 23.4 33 18.5 47.4-2.2 6.5-6.5 12.6-14.5 20.3-18.6 18-40.1 29-82.9 42-5.8 1.8-12.3 3.8-14.5 4.5-2.2.8-12.1 4-22 7.1-46.8 14.8-70.9 27.4-90.6 47.4-15.6 15.8-25.2 34.9-27.6 55.3-1.7 13.9-.9 36.3 1.8 51.2l1.3 7 1.3-6c7.3-34 13.7-48.4 28.3-63.4 12.3-12.7 27.4-22.9 47.5-32.2 13.1-5.9 13.5-6.1 30.5-12.9 25.1-10 39.8-14.5 69.5-21.5 19.3-4.6 33.7-7.9 38.5-9 23-5 67.4-20.1 85.5-29 12.4-6.1 33.5-18.8 35.5-21.4.3-.3 2.1-1.8 4-3.3 22.6-17.1 31.8-38.5 24.8-57.9-8.3-22.7-36.6-44.3-77.2-58.9-10.1-3.6-44.1-12-48.7-12-.3 0-1.9 2.8-3.6 6.3zM215.5 259.4c-15.7 6.3-25.6 11.2-35.2 17.4-6.6 4.3-9.3 6.8-6 5.7.6-.2 5.9-1.6 11.7-2.9 5.8-1.4 15.7-3.9 22-5.6 6.3-1.7 12.8-3.3 14.4-3.6 1.6-.3 3.2-.6 3.5-.8.3-.2 2.4-.7 4.5-1 2.2-.4 4.2-.8 4.4-1.1.8-.8-4-13.5-5.1-13.4-.7 0-7 2.4-14.2 5.3z"/></svg>