<svg version="1.1" id="Layer_2_00000025434919161883559430000006734623757062830231_" xmlns="http://www.w3.org/2000/svg" x="0" y="0" viewBox="0 0 4145.9 381" style="enable-background:new 0 0 4145.9 381" xml:space="preserve"><path d="M4.7 328.9C582 211 1169.6 184.5 1753.9 129.4 2107 96.1 2459.7 59 2813 29.2c297.2-25.1 595.3-37.2 893.7-22 83.6 4.3 166.8 13 247.3 38.3 42.5 13.3 83.6 29.5 120.1 55.7 91.7 65.8 96.6 198.4-30.6 272.8-11.3 6.6-26.1 11.4-35.7-1.7-10.4-14.2 2-24.1 11.5-33.1 18.3-17.4 35.8-35.5 48.3-57.7 20.1-35.8 15.7-59-15.9-84.5-26.6-21.5-58.1-32.1-91-38.3-109.1-20.5-219.2-32.8-330.2-35-379.4-7.5-757.1 17.8-1134.2 56.9-576.2 59.7-1153 113-1731.1 151.1-220.4 14.5-441 11.6-661.4-2.4-33.2-2.2-66.4-.4-99.1-.4z" style="fill:#53ae4d" id="Layer_1-2"/></svg>